<mxfile host="Electron" agent="Mozilla/5.0 (Windows NT 10.0; Win64; x64) AppleWebKit/537.36 (KHTML, like Gecko) draw.io/24.7.17 Chrome/128.0.6613.36 Electron/32.0.1 Safari/537.36" version="24.7.17">
  <diagram name="Page-1" id="jbwlnnDd1l8xT_FwyOMw">
    <mxGraphModel dx="1200" dy="763" grid="1" gridSize="10" guides="1" tooltips="1" connect="1" arrows="1" fold="1" page="1" pageScale="1" pageWidth="850" pageHeight="1100" math="0" shadow="0">
      <root>
        <mxCell id="0" />
        <mxCell id="1" parent="0" />
        <mxCell id="-8niCsiZVNX7fC--HE6z-6" style="edgeStyle=orthogonalEdgeStyle;rounded=0;orthogonalLoop=1;jettySize=auto;html=1;exitX=0.5;exitY=1;exitDx=0;exitDy=0;" parent="1" source="-8niCsiZVNX7fC--HE6z-1" edge="1">
          <mxGeometry relative="1" as="geometry">
            <mxPoint x="135" y="150" as="targetPoint" />
          </mxGeometry>
        </mxCell>
        <mxCell id="-8niCsiZVNX7fC--HE6z-1" value="Start" style="ellipse;whiteSpace=wrap;html=1;fillColor=#e6d0de;gradientColor=#d5739d;strokeColor=#996185;" parent="1" vertex="1">
          <mxGeometry x="80" y="40" width="110" height="60" as="geometry" />
        </mxCell>
        <mxCell id="-8niCsiZVNX7fC--HE6z-9" style="edgeStyle=orthogonalEdgeStyle;rounded=0;orthogonalLoop=1;jettySize=auto;html=1;exitX=0.5;exitY=1;exitDx=0;exitDy=0;" parent="1" source="-8niCsiZVNX7fC--HE6z-7" edge="1">
          <mxGeometry relative="1" as="geometry">
            <mxPoint x="135" y="250" as="targetPoint" />
          </mxGeometry>
        </mxCell>
        <mxCell id="-8niCsiZVNX7fC--HE6z-7" value="input email&amp;nbsp;&lt;div&gt;dan password&lt;/div&gt;" style="shape=parallelogram;perimeter=parallelogramPerimeter;whiteSpace=wrap;html=1;fixedSize=1;fillColor=#1ba1e2;strokeColor=#006EAF;fontColor=#ffffff;" parent="1" vertex="1">
          <mxGeometry x="75" y="150" width="120" height="60" as="geometry" />
        </mxCell>
        <mxCell id="-8niCsiZVNX7fC--HE6z-24" style="edgeStyle=orthogonalEdgeStyle;rounded=0;orthogonalLoop=1;jettySize=auto;html=1;exitX=0.5;exitY=1;exitDx=0;exitDy=0;" parent="1" source="-8niCsiZVNX7fC--HE6z-10" edge="1">
          <mxGeometry relative="1" as="geometry">
            <mxPoint x="135" y="390" as="targetPoint" />
          </mxGeometry>
        </mxCell>
        <mxCell id="-8niCsiZVNX7fC--HE6z-10" value="if email==0&lt;br&gt;password==0" style="rhombus;whiteSpace=wrap;html=1;fillColor=#e1d5e7;strokeColor=#9673a6;" parent="1" vertex="1">
          <mxGeometry x="78.75" y="250" width="112.5" height="100" as="geometry" />
        </mxCell>
        <mxCell id="-8niCsiZVNX7fC--HE6z-17" value="" style="endArrow=none;html=1;rounded=0;exitX=1;exitY=0.5;exitDx=0;exitDy=0;" parent="1" source="-8niCsiZVNX7fC--HE6z-10" edge="1">
          <mxGeometry width="50" height="50" relative="1" as="geometry">
            <mxPoint x="360" y="250" as="sourcePoint" />
            <mxPoint x="280" y="300" as="targetPoint" />
          </mxGeometry>
        </mxCell>
        <mxCell id="-8niCsiZVNX7fC--HE6z-20" value="" style="endArrow=none;html=1;rounded=0;" parent="1" edge="1">
          <mxGeometry width="50" height="50" relative="1" as="geometry">
            <mxPoint x="280" y="300" as="sourcePoint" />
            <mxPoint x="280" y="180" as="targetPoint" />
          </mxGeometry>
        </mxCell>
        <mxCell id="-8niCsiZVNX7fC--HE6z-21" value="" style="endArrow=classic;html=1;rounded=0;entryX=1;entryY=0.5;entryDx=0;entryDy=0;" parent="1" target="-8niCsiZVNX7fC--HE6z-7" edge="1">
          <mxGeometry width="50" height="50" relative="1" as="geometry">
            <mxPoint x="280" y="180" as="sourcePoint" />
            <mxPoint x="410" y="200" as="targetPoint" />
          </mxGeometry>
        </mxCell>
        <mxCell id="-8niCsiZVNX7fC--HE6z-22" value="false" style="text;html=1;align=center;verticalAlign=middle;resizable=0;points=[];autosize=1;strokeColor=none;fillColor=none;" parent="1" vertex="1">
          <mxGeometry x="195" y="270" width="50" height="30" as="geometry" />
        </mxCell>
        <mxCell id="-8niCsiZVNX7fC--HE6z-27" style="edgeStyle=orthogonalEdgeStyle;rounded=0;orthogonalLoop=1;jettySize=auto;html=1;exitX=0.5;exitY=1;exitDx=0;exitDy=0;" parent="1" source="-8niCsiZVNX7fC--HE6z-25" edge="1">
          <mxGeometry relative="1" as="geometry">
            <mxPoint x="135" y="530" as="targetPoint" />
          </mxGeometry>
        </mxCell>
        <mxCell id="xvSNa2k9RJhKBEgSGfIr-67" style="edgeStyle=orthogonalEdgeStyle;rounded=0;orthogonalLoop=1;jettySize=auto;html=1;entryX=1;entryY=0.5;entryDx=0;entryDy=0;" edge="1" parent="1" source="-8niCsiZVNX7fC--HE6z-25" target="xvSNa2k9RJhKBEgSGfIr-52">
          <mxGeometry relative="1" as="geometry" />
        </mxCell>
        <mxCell id="-8niCsiZVNX7fC--HE6z-25" value="1.Home&lt;br&gt;2.About&lt;br&gt;3.Movies&lt;br&gt;4.Event&lt;br&gt;5.Logout" style="whiteSpace=wrap;html=1;aspect=fixed;fillColor=#647687;strokeColor=#314354;fontColor=#ffffff;" parent="1" vertex="1">
          <mxGeometry x="87.5" y="390" width="95" height="95" as="geometry" />
        </mxCell>
        <mxCell id="-8niCsiZVNX7fC--HE6z-29" style="edgeStyle=orthogonalEdgeStyle;rounded=0;orthogonalLoop=1;jettySize=auto;html=1;exitX=0.5;exitY=1;exitDx=0;exitDy=0;entryX=0.5;entryY=0;entryDx=0;entryDy=0;" parent="1" source="-8niCsiZVNX7fC--HE6z-26" edge="1" target="-8niCsiZVNX7fC--HE6z-30">
          <mxGeometry relative="1" as="geometry">
            <mxPoint x="135" y="650" as="targetPoint" />
          </mxGeometry>
        </mxCell>
        <mxCell id="-8niCsiZVNX7fC--HE6z-45" style="edgeStyle=orthogonalEdgeStyle;rounded=0;orthogonalLoop=1;jettySize=auto;html=1;" parent="1" source="-8niCsiZVNX7fC--HE6z-26" target="-8niCsiZVNX7fC--HE6z-46" edge="1">
          <mxGeometry relative="1" as="geometry">
            <mxPoint x="230" y="570" as="targetPoint" />
          </mxGeometry>
        </mxCell>
        <mxCell id="-8niCsiZVNX7fC--HE6z-26" value="if pilih==1" style="rhombus;whiteSpace=wrap;html=1;fillColor=#e1d5e7;strokeColor=#9673a6;" parent="1" vertex="1">
          <mxGeometry x="95" y="530" width="80" height="80" as="geometry" />
        </mxCell>
        <mxCell id="-8niCsiZVNX7fC--HE6z-32" value="" style="edgeStyle=orthogonalEdgeStyle;rounded=0;orthogonalLoop=1;jettySize=auto;html=1;" parent="1" source="-8niCsiZVNX7fC--HE6z-30" target="-8niCsiZVNX7fC--HE6z-31" edge="1">
          <mxGeometry relative="1" as="geometry" />
        </mxCell>
        <mxCell id="xvSNa2k9RJhKBEgSGfIr-105" style="edgeStyle=orthogonalEdgeStyle;rounded=0;orthogonalLoop=1;jettySize=auto;html=1;" edge="1" parent="1" source="-8niCsiZVNX7fC--HE6z-30" target="xvSNa2k9RJhKBEgSGfIr-106">
          <mxGeometry relative="1" as="geometry">
            <mxPoint x="60" y="830" as="targetPoint" />
          </mxGeometry>
        </mxCell>
        <mxCell id="-8niCsiZVNX7fC--HE6z-30" value="if pilih==2" style="rhombus;whiteSpace=wrap;html=1;fillColor=#e1d5e7;strokeColor=#9673a6;" parent="1" vertex="1">
          <mxGeometry x="95" y="790" width="80" height="80" as="geometry" />
        </mxCell>
        <mxCell id="-8niCsiZVNX7fC--HE6z-34" value="" style="edgeStyle=orthogonalEdgeStyle;rounded=0;orthogonalLoop=1;jettySize=auto;html=1;" parent="1" source="-8niCsiZVNX7fC--HE6z-31" target="-8niCsiZVNX7fC--HE6z-33" edge="1">
          <mxGeometry relative="1" as="geometry" />
        </mxCell>
        <mxCell id="-8niCsiZVNX7fC--HE6z-54" style="edgeStyle=orthogonalEdgeStyle;rounded=0;orthogonalLoop=1;jettySize=auto;html=1;" parent="1" source="-8niCsiZVNX7fC--HE6z-31" target="-8niCsiZVNX7fC--HE6z-55" edge="1">
          <mxGeometry relative="1" as="geometry">
            <mxPoint x="250" y="810" as="targetPoint" />
          </mxGeometry>
        </mxCell>
        <mxCell id="-8niCsiZVNX7fC--HE6z-31" value="if pilih==3" style="rhombus;whiteSpace=wrap;html=1;fillColor=#e1d5e7;strokeColor=#9673a6;" parent="1" vertex="1">
          <mxGeometry x="95" y="913" width="80" height="80" as="geometry" />
        </mxCell>
        <mxCell id="-8niCsiZVNX7fC--HE6z-36" value="" style="edgeStyle=orthogonalEdgeStyle;rounded=0;orthogonalLoop=1;jettySize=auto;html=1;" parent="1" source="-8niCsiZVNX7fC--HE6z-33" target="-8niCsiZVNX7fC--HE6z-35" edge="1">
          <mxGeometry relative="1" as="geometry" />
        </mxCell>
        <mxCell id="-8niCsiZVNX7fC--HE6z-56" style="edgeStyle=orthogonalEdgeStyle;rounded=0;orthogonalLoop=1;jettySize=auto;html=1;" parent="1" source="-8niCsiZVNX7fC--HE6z-33" target="-8niCsiZVNX7fC--HE6z-57" edge="1">
          <mxGeometry relative="1" as="geometry">
            <mxPoint x="250" y="930" as="targetPoint" />
          </mxGeometry>
        </mxCell>
        <mxCell id="xvSNa2k9RJhKBEgSGfIr-92" style="edgeStyle=orthogonalEdgeStyle;rounded=0;orthogonalLoop=1;jettySize=auto;html=1;" edge="1" parent="1" source="-8niCsiZVNX7fC--HE6z-33" target="xvSNa2k9RJhKBEgSGfIr-93">
          <mxGeometry relative="1" as="geometry">
            <mxPoint x="60" y="1370" as="targetPoint" />
          </mxGeometry>
        </mxCell>
        <mxCell id="-8niCsiZVNX7fC--HE6z-33" value="if pilih==4" style="rhombus;whiteSpace=wrap;html=1;fillColor=#e1d5e7;strokeColor=#9673a6;" parent="1" vertex="1">
          <mxGeometry x="95" y="1330" width="80" height="80" as="geometry" />
        </mxCell>
        <mxCell id="xvSNa2k9RJhKBEgSGfIr-33" style="edgeStyle=orthogonalEdgeStyle;rounded=0;orthogonalLoop=1;jettySize=auto;html=1;" edge="1" parent="1" source="-8niCsiZVNX7fC--HE6z-35">
          <mxGeometry relative="1" as="geometry">
            <mxPoint x="135" y="1900" as="targetPoint" />
          </mxGeometry>
        </mxCell>
        <mxCell id="xvSNa2k9RJhKBEgSGfIr-47" style="edgeStyle=orthogonalEdgeStyle;rounded=0;orthogonalLoop=1;jettySize=auto;html=1;" edge="1" parent="1" source="-8niCsiZVNX7fC--HE6z-35" target="xvSNa2k9RJhKBEgSGfIr-48">
          <mxGeometry relative="1" as="geometry">
            <mxPoint x="230" y="1790" as="targetPoint" />
          </mxGeometry>
        </mxCell>
        <mxCell id="-8niCsiZVNX7fC--HE6z-35" value="if pilih==5" style="rhombus;whiteSpace=wrap;html=1;fillColor=#e1d5e7;strokeColor=#9673a6;" parent="1" vertex="1">
          <mxGeometry x="95" y="1750" width="80" height="80" as="geometry" />
        </mxCell>
        <mxCell id="-8niCsiZVNX7fC--HE6z-48" style="edgeStyle=orthogonalEdgeStyle;rounded=0;orthogonalLoop=1;jettySize=auto;html=1;" parent="1" source="-8niCsiZVNX7fC--HE6z-46" edge="1">
          <mxGeometry relative="1" as="geometry">
            <mxPoint x="420" y="570" as="targetPoint" />
          </mxGeometry>
        </mxCell>
        <mxCell id="-8niCsiZVNX7fC--HE6z-46" value="1.search&lt;br&gt;2.view event&lt;br&gt;3.view about&lt;div&gt;&lt;br/&gt;&lt;/div&gt;" style="rounded=0;whiteSpace=wrap;html=1;fillColor=#647687;strokeColor=#314354;fontColor=#ffffff;" parent="1" vertex="1">
          <mxGeometry x="250" y="540" width="120" height="60" as="geometry" />
        </mxCell>
        <mxCell id="xvSNa2k9RJhKBEgSGfIr-43" style="edgeStyle=orthogonalEdgeStyle;rounded=0;orthogonalLoop=1;jettySize=auto;html=1;" edge="1" parent="1" source="-8niCsiZVNX7fC--HE6z-53" target="xvSNa2k9RJhKBEgSGfIr-44">
          <mxGeometry relative="1" as="geometry">
            <mxPoint x="420" y="800" as="targetPoint" />
          </mxGeometry>
        </mxCell>
        <mxCell id="-8niCsiZVNX7fC--HE6z-53" value="menampilkan halaman about" style="rounded=0;whiteSpace=wrap;html=1;fillColor=#647687;fontColor=#ffffff;strokeColor=#314354;" parent="1" vertex="1">
          <mxGeometry x="260" y="800" width="120" height="60" as="geometry" />
        </mxCell>
        <mxCell id="xvSNa2k9RJhKBEgSGfIr-31" style="edgeStyle=orthogonalEdgeStyle;rounded=0;orthogonalLoop=1;jettySize=auto;html=1;entryX=0;entryY=0.5;entryDx=0;entryDy=0;" edge="1" parent="1" source="-8niCsiZVNX7fC--HE6z-55" target="xvSNa2k9RJhKBEgSGfIr-8">
          <mxGeometry relative="1" as="geometry" />
        </mxCell>
        <mxCell id="-8niCsiZVNX7fC--HE6z-55" value="menampilkan halaman movies" style="rounded=0;whiteSpace=wrap;html=1;fillColor=#647687;fontColor=#ffffff;strokeColor=#314354;" parent="1" vertex="1">
          <mxGeometry x="250" y="923" width="120" height="60" as="geometry" />
        </mxCell>
        <mxCell id="-8niCsiZVNX7fC--HE6z-82" value="" style="edgeStyle=orthogonalEdgeStyle;rounded=0;orthogonalLoop=1;jettySize=auto;html=1;" parent="1" source="-8niCsiZVNX7fC--HE6z-57" target="-8niCsiZVNX7fC--HE6z-81" edge="1">
          <mxGeometry relative="1" as="geometry" />
        </mxCell>
        <mxCell id="-8niCsiZVNX7fC--HE6z-57" value="menampilkan halaman event" style="rounded=0;whiteSpace=wrap;html=1;fillColor=#647687;fontColor=#ffffff;strokeColor=#314354;" parent="1" vertex="1">
          <mxGeometry x="250" y="1340" width="120" height="60" as="geometry" />
        </mxCell>
        <mxCell id="-8niCsiZVNX7fC--HE6z-60" value="true" style="text;html=1;align=center;verticalAlign=middle;resizable=0;points=[];autosize=1;strokeColor=none;fillColor=none;" parent="1" vertex="1">
          <mxGeometry x="130" y="348" width="40" height="30" as="geometry" />
        </mxCell>
        <mxCell id="-8niCsiZVNX7fC--HE6z-69" value="" style="edgeStyle=orthogonalEdgeStyle;rounded=0;orthogonalLoop=1;jettySize=auto;html=1;" parent="1" source="-8niCsiZVNX7fC--HE6z-67" target="-8niCsiZVNX7fC--HE6z-68" edge="1">
          <mxGeometry relative="1" as="geometry" />
        </mxCell>
        <mxCell id="-8niCsiZVNX7fC--HE6z-67" value="seach" style="rounded=0;whiteSpace=wrap;html=1;fillColor=#647687;fontColor=#ffffff;strokeColor=#314354;" parent="1" vertex="1">
          <mxGeometry x="560" y="540" width="100" height="60" as="geometry" />
        </mxCell>
        <mxCell id="-8niCsiZVNX7fC--HE6z-71" value="" style="edgeStyle=orthogonalEdgeStyle;rounded=0;orthogonalLoop=1;jettySize=auto;html=1;" parent="1" source="-8niCsiZVNX7fC--HE6z-68" target="-8niCsiZVNX7fC--HE6z-70" edge="1">
          <mxGeometry relative="1" as="geometry" />
        </mxCell>
        <mxCell id="-8niCsiZVNX7fC--HE6z-68" value="input nama&lt;br&gt;movie" style="shape=parallelogram;perimeter=parallelogramPerimeter;whiteSpace=wrap;html=1;fixedSize=1;rounded=0;fillColor=#1ba1e2;strokeColor=#006EAF;fontColor=#ffffff;" parent="1" vertex="1">
          <mxGeometry x="780" y="540" width="120" height="60" as="geometry" />
        </mxCell>
        <mxCell id="-8niCsiZVNX7fC--HE6z-73" value="" style="edgeStyle=orthogonalEdgeStyle;rounded=0;orthogonalLoop=1;jettySize=auto;html=1;" parent="1" source="-8niCsiZVNX7fC--HE6z-70" target="-8niCsiZVNX7fC--HE6z-72" edge="1">
          <mxGeometry relative="1" as="geometry" />
        </mxCell>
        <mxCell id="-8niCsiZVNX7fC--HE6z-77" value="" style="edgeStyle=orthogonalEdgeStyle;rounded=0;orthogonalLoop=1;jettySize=auto;html=1;" parent="1" source="-8niCsiZVNX7fC--HE6z-70" target="-8niCsiZVNX7fC--HE6z-76" edge="1">
          <mxGeometry relative="1" as="geometry" />
        </mxCell>
        <mxCell id="-8niCsiZVNX7fC--HE6z-70" value="apakah&amp;nbsp;&lt;br&gt;movie&amp;nbsp;&lt;br&gt;ditemukan?" style="rhombus;whiteSpace=wrap;html=1;rounded=0;fillColor=#e1d5e7;strokeColor=#9673a6;" parent="1" vertex="1">
          <mxGeometry x="1010" y="520" width="110" height="100" as="geometry" />
        </mxCell>
        <mxCell id="xvSNa2k9RJhKBEgSGfIr-116" style="edgeStyle=orthogonalEdgeStyle;rounded=0;orthogonalLoop=1;jettySize=auto;html=1;exitX=1;exitY=0.5;exitDx=0;exitDy=0;entryX=0.5;entryY=0;entryDx=0;entryDy=0;" edge="1" parent="1" source="-8niCsiZVNX7fC--HE6z-72" target="xvSNa2k9RJhKBEgSGfIr-117">
          <mxGeometry relative="1" as="geometry">
            <mxPoint x="1300" y="670" as="targetPoint" />
          </mxGeometry>
        </mxCell>
        <mxCell id="-8niCsiZVNX7fC--HE6z-72" value="data tidak&lt;br&gt;ditemukan&lt;br&gt;(not found)" style="whiteSpace=wrap;html=1;rounded=0;fillColor=#647687;fontColor=#ffffff;strokeColor=#314354;" parent="1" vertex="1">
          <mxGeometry x="1160" y="540" width="120" height="60" as="geometry" />
        </mxCell>
        <mxCell id="xvSNa2k9RJhKBEgSGfIr-118" style="edgeStyle=orthogonalEdgeStyle;rounded=0;orthogonalLoop=1;jettySize=auto;html=1;entryX=0;entryY=0.5;entryDx=0;entryDy=0;" edge="1" parent="1" source="-8niCsiZVNX7fC--HE6z-76" target="xvSNa2k9RJhKBEgSGfIr-117">
          <mxGeometry relative="1" as="geometry" />
        </mxCell>
        <mxCell id="-8niCsiZVNX7fC--HE6z-76" value="menampilkan&lt;br&gt;movie img dan&amp;nbsp;&lt;br&gt;detailnya" style="whiteSpace=wrap;html=1;rounded=0;fillColor=#647687;fontColor=#ffffff;strokeColor=#314354;" parent="1" vertex="1">
          <mxGeometry x="1005" y="668.75" width="120" height="60" as="geometry" />
        </mxCell>
        <mxCell id="-8niCsiZVNX7fC--HE6z-84" value="" style="edgeStyle=orthogonalEdgeStyle;rounded=0;orthogonalLoop=1;jettySize=auto;html=1;" parent="1" source="-8niCsiZVNX7fC--HE6z-81" target="-8niCsiZVNX7fC--HE6z-83" edge="1">
          <mxGeometry relative="1" as="geometry" />
        </mxCell>
        <mxCell id="-8niCsiZVNX7fC--HE6z-81" value="1.delete&lt;br&gt;2.tambah&lt;br&gt;3.update" style="whiteSpace=wrap;html=1;rounded=0;fillColor=#647687;fontColor=#ffffff;strokeColor=#314354;" parent="1" vertex="1">
          <mxGeometry x="480" y="1340" width="120" height="60" as="geometry" />
        </mxCell>
        <mxCell id="-8niCsiZVNX7fC--HE6z-86" value="" style="edgeStyle=orthogonalEdgeStyle;rounded=0;orthogonalLoop=1;jettySize=auto;html=1;" parent="1" source="-8niCsiZVNX7fC--HE6z-83" target="-8niCsiZVNX7fC--HE6z-85" edge="1">
          <mxGeometry relative="1" as="geometry" />
        </mxCell>
        <mxCell id="-8niCsiZVNX7fC--HE6z-92" value="" style="edgeStyle=orthogonalEdgeStyle;rounded=0;orthogonalLoop=1;jettySize=auto;html=1;" parent="1" source="-8niCsiZVNX7fC--HE6z-83" target="-8niCsiZVNX7fC--HE6z-91" edge="1">
          <mxGeometry relative="1" as="geometry" />
        </mxCell>
        <mxCell id="-8niCsiZVNX7fC--HE6z-83" value="if pilih == 1" style="rhombus;whiteSpace=wrap;html=1;rounded=0;fillColor=#e1d5e7;strokeColor=#9673a6;" parent="1" vertex="1">
          <mxGeometry x="680" y="1330" width="80" height="80" as="geometry" />
        </mxCell>
        <mxCell id="-8niCsiZVNX7fC--HE6z-88" value="" style="edgeStyle=orthogonalEdgeStyle;rounded=0;orthogonalLoop=1;jettySize=auto;html=1;" parent="1" source="-8niCsiZVNX7fC--HE6z-85" target="-8niCsiZVNX7fC--HE6z-87" edge="1">
          <mxGeometry relative="1" as="geometry" />
        </mxCell>
        <mxCell id="-8niCsiZVNX7fC--HE6z-96" value="" style="edgeStyle=orthogonalEdgeStyle;rounded=0;orthogonalLoop=1;jettySize=auto;html=1;" parent="1" source="-8niCsiZVNX7fC--HE6z-85" target="-8niCsiZVNX7fC--HE6z-95" edge="1">
          <mxGeometry relative="1" as="geometry" />
        </mxCell>
        <mxCell id="-8niCsiZVNX7fC--HE6z-98" value="" style="edgeStyle=orthogonalEdgeStyle;rounded=0;orthogonalLoop=1;jettySize=auto;html=1;" parent="1" source="-8niCsiZVNX7fC--HE6z-87" target="-8niCsiZVNX7fC--HE6z-97" edge="1">
          <mxGeometry relative="1" as="geometry" />
        </mxCell>
        <mxCell id="xvSNa2k9RJhKBEgSGfIr-137" style="edgeStyle=orthogonalEdgeStyle;rounded=0;orthogonalLoop=1;jettySize=auto;html=1;" edge="1" parent="1" source="-8niCsiZVNX7fC--HE6z-87">
          <mxGeometry relative="1" as="geometry">
            <mxPoint x="720" y="1780" as="targetPoint" />
          </mxGeometry>
        </mxCell>
        <mxCell id="-8niCsiZVNX7fC--HE6z-87" value="if pilih == 3" style="rhombus;whiteSpace=wrap;html=1;rounded=0;fillColor=#e1d5e7;strokeColor=#9673a6;" parent="1" vertex="1">
          <mxGeometry x="680" y="1640" width="80" height="80" as="geometry" />
        </mxCell>
        <mxCell id="xvSNa2k9RJhKBEgSGfIr-55" style="edgeStyle=orthogonalEdgeStyle;rounded=0;orthogonalLoop=1;jettySize=auto;html=1;exitX=1;exitY=0.5;exitDx=0;exitDy=0;" edge="1" parent="1" source="-8niCsiZVNX7fC--HE6z-91">
          <mxGeometry relative="1" as="geometry">
            <mxPoint x="1040" y="1370" as="targetPoint" />
          </mxGeometry>
        </mxCell>
        <mxCell id="-8niCsiZVNX7fC--HE6z-91" value="memilih event yg ingin di hapus" style="whiteSpace=wrap;html=1;rounded=0;fillColor=#647687;fontColor=#ffffff;strokeColor=#314354;" parent="1" vertex="1">
          <mxGeometry x="850" y="1340" width="110" height="60" as="geometry" />
        </mxCell>
        <mxCell id="xvSNa2k9RJhKBEgSGfIr-59" style="edgeStyle=orthogonalEdgeStyle;rounded=0;orthogonalLoop=1;jettySize=auto;html=1;exitX=1;exitY=0.5;exitDx=0;exitDy=0;" edge="1" parent="1" source="-8niCsiZVNX7fC--HE6z-95">
          <mxGeometry relative="1" as="geometry">
            <mxPoint x="1040" y="1520" as="targetPoint" />
          </mxGeometry>
        </mxCell>
        <mxCell id="-8niCsiZVNX7fC--HE6z-95" value="menginput nama,movie&amp;nbsp;&lt;div&gt;dan tgl event nya yg ingin&amp;nbsp;&lt;div&gt;di tambahkan&lt;/div&gt;&lt;/div&gt;" style="shape=parallelogram;perimeter=parallelogramPerimeter;whiteSpace=wrap;html=1;fixedSize=1;rounded=0;fillColor=#1ba1e2;fontColor=#ffffff;strokeColor=#006EAF;" parent="1" vertex="1">
          <mxGeometry x="835" y="1490" width="175" height="60" as="geometry" />
        </mxCell>
        <mxCell id="xvSNa2k9RJhKBEgSGfIr-72" style="edgeStyle=orthogonalEdgeStyle;rounded=0;orthogonalLoop=1;jettySize=auto;html=1;entryX=0;entryY=0.5;entryDx=0;entryDy=0;" edge="1" parent="1" source="-8niCsiZVNX7fC--HE6z-97" target="xvSNa2k9RJhKBEgSGfIr-70">
          <mxGeometry relative="1" as="geometry" />
        </mxCell>
        <mxCell id="-8niCsiZVNX7fC--HE6z-97" value="pilih event yg ingin&amp;nbsp;&lt;br&gt;di update&lt;br&gt;mengedit nama,movie dan tgl nya" style="whiteSpace=wrap;html=1;rounded=0;fillColor=#647687;fontColor=#ffffff;strokeColor=#314354;" parent="1" vertex="1">
          <mxGeometry x="845" y="1650" width="155" height="60" as="geometry" />
        </mxCell>
        <mxCell id="xvSNa2k9RJhKBEgSGfIr-10" style="edgeStyle=orthogonalEdgeStyle;rounded=0;orthogonalLoop=1;jettySize=auto;html=1;" edge="1" parent="1" source="xvSNa2k9RJhKBEgSGfIr-8" target="xvSNa2k9RJhKBEgSGfIr-11">
          <mxGeometry relative="1" as="geometry">
            <mxPoint x="610" y="810" as="targetPoint" />
          </mxGeometry>
        </mxCell>
        <mxCell id="xvSNa2k9RJhKBEgSGfIr-8" value="1.filter&lt;br&gt;2.sorting&lt;br&gt;3.popup" style="rounded=0;whiteSpace=wrap;html=1;fillColor=#647687;fontColor=#ffffff;strokeColor=#314354;" vertex="1" parent="1">
          <mxGeometry x="455" y="923" width="120" height="60" as="geometry" />
        </mxCell>
        <mxCell id="xvSNa2k9RJhKBEgSGfIr-13" value="" style="edgeStyle=orthogonalEdgeStyle;rounded=0;orthogonalLoop=1;jettySize=auto;html=1;" edge="1" parent="1" source="xvSNa2k9RJhKBEgSGfIr-11" target="xvSNa2k9RJhKBEgSGfIr-12">
          <mxGeometry relative="1" as="geometry" />
        </mxCell>
        <mxCell id="xvSNa2k9RJhKBEgSGfIr-152" style="edgeStyle=orthogonalEdgeStyle;rounded=0;orthogonalLoop=1;jettySize=auto;html=1;entryX=0.5;entryY=0;entryDx=0;entryDy=0;" edge="1" parent="1" source="xvSNa2k9RJhKBEgSGfIr-11" target="xvSNa2k9RJhKBEgSGfIr-14">
          <mxGeometry relative="1" as="geometry" />
        </mxCell>
        <mxCell id="xvSNa2k9RJhKBEgSGfIr-11" value="pilih==1" style="rhombus;whiteSpace=wrap;html=1;fillColor=#e1d5e7;strokeColor=#9673a6;" vertex="1" parent="1">
          <mxGeometry x="635" y="913" width="80" height="80" as="geometry" />
        </mxCell>
        <mxCell id="xvSNa2k9RJhKBEgSGfIr-149" style="edgeStyle=orthogonalEdgeStyle;rounded=0;orthogonalLoop=1;jettySize=auto;html=1;entryX=0;entryY=0.5;entryDx=0;entryDy=0;" edge="1" parent="1" source="xvSNa2k9RJhKBEgSGfIr-12" target="xvSNa2k9RJhKBEgSGfIr-80">
          <mxGeometry relative="1" as="geometry" />
        </mxCell>
        <mxCell id="xvSNa2k9RJhKBEgSGfIr-12" value="memfilter movie berdasarkan rating dan genre" style="whiteSpace=wrap;html=1;fillColor=#647687;fontColor=#ffffff;strokeColor=#314354;" vertex="1" parent="1">
          <mxGeometry x="790" y="923" width="120" height="60" as="geometry" />
        </mxCell>
        <mxCell id="xvSNa2k9RJhKBEgSGfIr-17" value="" style="edgeStyle=orthogonalEdgeStyle;rounded=0;orthogonalLoop=1;jettySize=auto;html=1;" edge="1" parent="1" source="xvSNa2k9RJhKBEgSGfIr-14" target="xvSNa2k9RJhKBEgSGfIr-16">
          <mxGeometry relative="1" as="geometry" />
        </mxCell>
        <mxCell id="xvSNa2k9RJhKBEgSGfIr-21" value="" style="edgeStyle=orthogonalEdgeStyle;rounded=0;orthogonalLoop=1;jettySize=auto;html=1;" edge="1" parent="1" source="xvSNa2k9RJhKBEgSGfIr-14" target="xvSNa2k9RJhKBEgSGfIr-20">
          <mxGeometry relative="1" as="geometry" />
        </mxCell>
        <mxCell id="xvSNa2k9RJhKBEgSGfIr-157" value="" style="edgeStyle=orthogonalEdgeStyle;rounded=0;orthogonalLoop=1;jettySize=auto;html=1;" edge="1" parent="1" source="xvSNa2k9RJhKBEgSGfIr-14" target="xvSNa2k9RJhKBEgSGfIr-11">
          <mxGeometry relative="1" as="geometry" />
        </mxCell>
        <mxCell id="xvSNa2k9RJhKBEgSGfIr-14" value="pilih==2" style="rhombus;whiteSpace=wrap;html=1;fillColor=#e1d5e7;strokeColor=#9673a6;" vertex="1" parent="1">
          <mxGeometry x="635" y="1040" width="80" height="80" as="geometry" />
        </mxCell>
        <mxCell id="xvSNa2k9RJhKBEgSGfIr-151" style="edgeStyle=orthogonalEdgeStyle;rounded=0;orthogonalLoop=1;jettySize=auto;html=1;entryX=0;entryY=0.5;entryDx=0;entryDy=0;" edge="1" parent="1" source="xvSNa2k9RJhKBEgSGfIr-16" target="xvSNa2k9RJhKBEgSGfIr-81">
          <mxGeometry relative="1" as="geometry" />
        </mxCell>
        <mxCell id="xvSNa2k9RJhKBEgSGfIr-16" value="menyorting movie berdasarkan title tahun dan rating" style="whiteSpace=wrap;html=1;fillColor=#647687;fontColor=#ffffff;strokeColor=#314354;" vertex="1" parent="1">
          <mxGeometry x="790" y="1050" width="120" height="60" as="geometry" />
        </mxCell>
        <mxCell id="-8niCsiZVNX7fC--HE6z-85" value="if pilih == 2" style="rhombus;whiteSpace=wrap;html=1;rounded=0;fillColor=#e1d5e7;strokeColor=#9673a6;" parent="1" vertex="1">
          <mxGeometry x="680" y="1480" width="80" height="80" as="geometry" />
        </mxCell>
        <mxCell id="xvSNa2k9RJhKBEgSGfIr-23" value="" style="edgeStyle=orthogonalEdgeStyle;rounded=0;orthogonalLoop=1;jettySize=auto;html=1;" edge="1" parent="1" source="xvSNa2k9RJhKBEgSGfIr-20" target="xvSNa2k9RJhKBEgSGfIr-22">
          <mxGeometry relative="1" as="geometry" />
        </mxCell>
        <mxCell id="xvSNa2k9RJhKBEgSGfIr-20" value="pilih==3" style="rhombus;whiteSpace=wrap;html=1;fillColor=#e1d5e7;strokeColor=#9673a6;" vertex="1" parent="1">
          <mxGeometry x="635" y="1190" width="80" height="80" as="geometry" />
        </mxCell>
        <mxCell id="xvSNa2k9RJhKBEgSGfIr-82" style="edgeStyle=orthogonalEdgeStyle;rounded=0;orthogonalLoop=1;jettySize=auto;html=1;entryX=0;entryY=0.5;entryDx=0;entryDy=0;" edge="1" parent="1" source="xvSNa2k9RJhKBEgSGfIr-22" target="xvSNa2k9RJhKBEgSGfIr-83">
          <mxGeometry relative="1" as="geometry">
            <mxPoint x="970" y="1230" as="targetPoint" />
          </mxGeometry>
        </mxCell>
        <mxCell id="xvSNa2k9RJhKBEgSGfIr-22" value="menampilkan popup/detail dari moviie" style="whiteSpace=wrap;html=1;fillColor=#647687;fontColor=#ffffff;strokeColor=#314354;" vertex="1" parent="1">
          <mxGeometry x="790" y="1200" width="120" height="60" as="geometry" />
        </mxCell>
        <mxCell id="xvSNa2k9RJhKBEgSGfIr-27" style="edgeStyle=orthogonalEdgeStyle;rounded=0;orthogonalLoop=1;jettySize=auto;html=1;exitX=0.5;exitY=1;exitDx=0;exitDy=0;" edge="1" parent="1" source="-8niCsiZVNX7fC--HE6z-97" target="-8niCsiZVNX7fC--HE6z-97">
          <mxGeometry relative="1" as="geometry" />
        </mxCell>
        <mxCell id="xvSNa2k9RJhKBEgSGfIr-30" value="" style="endArrow=classic;html=1;rounded=0;exitX=1;exitY=0.5;exitDx=0;exitDy=0;entryX=0;entryY=0.5;entryDx=0;entryDy=0;" edge="1" parent="1" source="-8niCsiZVNX7fC--HE6z-30" target="-8niCsiZVNX7fC--HE6z-53">
          <mxGeometry width="50" height="50" relative="1" as="geometry">
            <mxPoint x="450" y="800" as="sourcePoint" />
            <mxPoint x="500" y="750" as="targetPoint" />
          </mxGeometry>
        </mxCell>
        <mxCell id="xvSNa2k9RJhKBEgSGfIr-36" style="edgeStyle=orthogonalEdgeStyle;rounded=0;orthogonalLoop=1;jettySize=auto;html=1;" edge="1" parent="1" source="xvSNa2k9RJhKBEgSGfIr-35" target="xvSNa2k9RJhKBEgSGfIr-37">
          <mxGeometry relative="1" as="geometry">
            <mxPoint x="135" y="2010" as="targetPoint" />
          </mxGeometry>
        </mxCell>
        <mxCell id="xvSNa2k9RJhKBEgSGfIr-35" value="logout" style="rounded=0;whiteSpace=wrap;html=1;fillColor=#647687;fontColor=#ffffff;strokeColor=#314354;" vertex="1" parent="1">
          <mxGeometry x="75" y="1900" width="120" height="60" as="geometry" />
        </mxCell>
        <mxCell id="xvSNa2k9RJhKBEgSGfIr-37" value="end" style="ellipse;whiteSpace=wrap;html=1;fillColor=#e6d0de;gradientColor=#d5739d;strokeColor=#996185;" vertex="1" parent="1">
          <mxGeometry x="77.5" y="2040" width="115" height="60" as="geometry" />
        </mxCell>
        <mxCell id="xvSNa2k9RJhKBEgSGfIr-44" value="A" style="ellipse;whiteSpace=wrap;html=1;aspect=fixed;fillColor=#6a00ff;fontColor=#ffffff;strokeColor=#3700CC;" vertex="1" parent="1">
          <mxGeometry x="440" y="810" width="40" height="40" as="geometry" />
        </mxCell>
        <mxCell id="xvSNa2k9RJhKBEgSGfIr-48" value="A" style="ellipse;whiteSpace=wrap;html=1;aspect=fixed;fillColor=#6a00ff;fontColor=#ffffff;strokeColor=#3700CC;" vertex="1" parent="1">
          <mxGeometry x="230" y="1767.5" width="45" height="45" as="geometry" />
        </mxCell>
        <mxCell id="xvSNa2k9RJhKBEgSGfIr-49" value="True" style="text;html=1;align=center;verticalAlign=middle;resizable=0;points=[];autosize=1;strokeColor=none;fillColor=none;" vertex="1" parent="1">
          <mxGeometry x="175" y="1758" width="50" height="30" as="geometry" />
        </mxCell>
        <mxCell id="xvSNa2k9RJhKBEgSGfIr-51" value="False" style="text;html=1;align=center;verticalAlign=middle;resizable=0;points=[];autosize=1;strokeColor=none;fillColor=none;" vertex="1" parent="1">
          <mxGeometry x="132.5" y="1838" width="50" height="30" as="geometry" />
        </mxCell>
        <mxCell id="xvSNa2k9RJhKBEgSGfIr-52" value="A" style="ellipse;whiteSpace=wrap;html=1;aspect=fixed;fillColor=#6a00ff;fontColor=#ffffff;strokeColor=#3700CC;" vertex="1" parent="1">
          <mxGeometry x="10" y="417.5" width="40" height="40" as="geometry" />
        </mxCell>
        <mxCell id="xvSNa2k9RJhKBEgSGfIr-74" style="edgeStyle=orthogonalEdgeStyle;rounded=0;orthogonalLoop=1;jettySize=auto;html=1;" edge="1" parent="1" source="xvSNa2k9RJhKBEgSGfIr-68">
          <mxGeometry relative="1" as="geometry">
            <mxPoint x="1220" y="1370" as="targetPoint" />
          </mxGeometry>
        </mxCell>
        <mxCell id="xvSNa2k9RJhKBEgSGfIr-68" value="event terhapus" style="rounded=0;whiteSpace=wrap;html=1;fillColor=#647687;fontColor=#ffffff;strokeColor=#314354;" vertex="1" parent="1">
          <mxGeometry x="1040" y="1340" width="120" height="60" as="geometry" />
        </mxCell>
        <mxCell id="xvSNa2k9RJhKBEgSGfIr-75" style="edgeStyle=orthogonalEdgeStyle;rounded=0;orthogonalLoop=1;jettySize=auto;html=1;" edge="1" parent="1" source="xvSNa2k9RJhKBEgSGfIr-69">
          <mxGeometry relative="1" as="geometry">
            <mxPoint x="1220" y="1520" as="targetPoint" />
          </mxGeometry>
        </mxCell>
        <mxCell id="xvSNa2k9RJhKBEgSGfIr-69" value="event berhasil ditambahkan" style="rounded=0;whiteSpace=wrap;html=1;fillColor=#647687;fontColor=#ffffff;strokeColor=#314354;" vertex="1" parent="1">
          <mxGeometry x="1040" y="1490" width="120" height="60" as="geometry" />
        </mxCell>
        <mxCell id="xvSNa2k9RJhKBEgSGfIr-76" style="edgeStyle=orthogonalEdgeStyle;rounded=0;orthogonalLoop=1;jettySize=auto;html=1;" edge="1" parent="1" source="xvSNa2k9RJhKBEgSGfIr-70">
          <mxGeometry relative="1" as="geometry">
            <mxPoint x="1220" y="1680" as="targetPoint" />
          </mxGeometry>
        </mxCell>
        <mxCell id="xvSNa2k9RJhKBEgSGfIr-70" value="event berhasil di&lt;div&gt;update&lt;/div&gt;" style="rounded=0;whiteSpace=wrap;html=1;fillColor=#647687;fontColor=#ffffff;strokeColor=#314354;" vertex="1" parent="1">
          <mxGeometry x="1050" y="1650" width="120" height="60" as="geometry" />
        </mxCell>
        <mxCell id="xvSNa2k9RJhKBEgSGfIr-77" value="" style="endArrow=none;html=1;rounded=0;" edge="1" parent="1">
          <mxGeometry width="50" height="50" relative="1" as="geometry">
            <mxPoint x="1220" y="1680" as="sourcePoint" />
            <mxPoint x="1220" y="1370" as="targetPoint" />
          </mxGeometry>
        </mxCell>
        <mxCell id="xvSNa2k9RJhKBEgSGfIr-78" value="" style="endArrow=classic;html=1;rounded=0;" edge="1" parent="1">
          <mxGeometry width="50" height="50" relative="1" as="geometry">
            <mxPoint x="1220" y="1530" as="sourcePoint" />
            <mxPoint x="1290" y="1530" as="targetPoint" />
          </mxGeometry>
        </mxCell>
        <mxCell id="xvSNa2k9RJhKBEgSGfIr-79" value="A" style="ellipse;whiteSpace=wrap;html=1;aspect=fixed;fillColor=#6a00ff;fontColor=#ffffff;strokeColor=#3700CC;" vertex="1" parent="1">
          <mxGeometry x="1290" y="1510" width="40" height="40" as="geometry" />
        </mxCell>
        <mxCell id="xvSNa2k9RJhKBEgSGfIr-155" style="edgeStyle=orthogonalEdgeStyle;rounded=0;orthogonalLoop=1;jettySize=auto;html=1;" edge="1" parent="1" source="xvSNa2k9RJhKBEgSGfIr-80" target="xvSNa2k9RJhKBEgSGfIr-83">
          <mxGeometry relative="1" as="geometry" />
        </mxCell>
        <mxCell id="xvSNa2k9RJhKBEgSGfIr-80" value="menampilkan hasil filter sesuai dengan&lt;br&gt;pilihan" style="rounded=0;whiteSpace=wrap;html=1;fillColor=#647687;fontColor=#ffffff;strokeColor=#314354;" vertex="1" parent="1">
          <mxGeometry x="990" y="923" width="120" height="60" as="geometry" />
        </mxCell>
        <mxCell id="xvSNa2k9RJhKBEgSGfIr-156" style="edgeStyle=orthogonalEdgeStyle;rounded=0;orthogonalLoop=1;jettySize=auto;html=1;" edge="1" parent="1" source="xvSNa2k9RJhKBEgSGfIr-81">
          <mxGeometry relative="1" as="geometry">
            <mxPoint x="1180" y="1080.0000000000002" as="targetPoint" />
          </mxGeometry>
        </mxCell>
        <mxCell id="xvSNa2k9RJhKBEgSGfIr-81" value="menampilkan hasil&amp;nbsp;&lt;div&gt;sorting sesuai dengan&lt;/div&gt;&lt;div&gt;pilihan&lt;/div&gt;" style="rounded=0;whiteSpace=wrap;html=1;fillColor=#647687;fontColor=#ffffff;strokeColor=#314354;" vertex="1" parent="1">
          <mxGeometry x="990" y="1050" width="120" height="60" as="geometry" />
        </mxCell>
        <mxCell id="xvSNa2k9RJhKBEgSGfIr-83" value="A" style="ellipse;whiteSpace=wrap;html=1;aspect=fixed;fillColor=#6a00ff;fontColor=#ffffff;strokeColor=#3700CC;" vertex="1" parent="1">
          <mxGeometry x="1150" y="1205" width="50" height="50" as="geometry" />
        </mxCell>
        <mxCell id="xvSNa2k9RJhKBEgSGfIr-85" style="edgeStyle=orthogonalEdgeStyle;rounded=0;orthogonalLoop=1;jettySize=auto;html=1;" edge="1" parent="1" source="xvSNa2k9RJhKBEgSGfIr-84" target="-8niCsiZVNX7fC--HE6z-67">
          <mxGeometry relative="1" as="geometry" />
        </mxCell>
        <mxCell id="xvSNa2k9RJhKBEgSGfIr-87" style="edgeStyle=orthogonalEdgeStyle;rounded=0;orthogonalLoop=1;jettySize=auto;html=1;" edge="1" parent="1" source="xvSNa2k9RJhKBEgSGfIr-84">
          <mxGeometry relative="1" as="geometry">
            <mxPoint x="460" y="640" as="targetPoint" />
          </mxGeometry>
        </mxCell>
        <mxCell id="xvSNa2k9RJhKBEgSGfIr-84" value="pilij==1" style="rhombus;whiteSpace=wrap;html=1;fillColor=#e1d5e7;strokeColor=#9673a6;" vertex="1" parent="1">
          <mxGeometry x="420" y="530" width="80" height="80" as="geometry" />
        </mxCell>
        <mxCell id="xvSNa2k9RJhKBEgSGfIr-86" value="true" style="text;html=1;align=center;verticalAlign=middle;resizable=0;points=[];autosize=1;strokeColor=none;fillColor=none;" vertex="1" parent="1">
          <mxGeometry x="500" y="538" width="40" height="30" as="geometry" />
        </mxCell>
        <mxCell id="xvSNa2k9RJhKBEgSGfIr-88" value="false" style="text;html=1;align=center;verticalAlign=middle;resizable=0;points=[];autosize=1;strokeColor=none;fillColor=none;" vertex="1" parent="1">
          <mxGeometry x="455" y="608" width="50" height="30" as="geometry" />
        </mxCell>
        <mxCell id="xvSNa2k9RJhKBEgSGfIr-90" style="edgeStyle=orthogonalEdgeStyle;rounded=0;orthogonalLoop=1;jettySize=auto;html=1;" edge="1" parent="1" source="xvSNa2k9RJhKBEgSGfIr-89" target="xvSNa2k9RJhKBEgSGfIr-91">
          <mxGeometry relative="1" as="geometry">
            <mxPoint x="540" y="678" as="targetPoint" />
          </mxGeometry>
        </mxCell>
        <mxCell id="xvSNa2k9RJhKBEgSGfIr-97" style="edgeStyle=orthogonalEdgeStyle;rounded=0;orthogonalLoop=1;jettySize=auto;html=1;" edge="1" parent="1" source="xvSNa2k9RJhKBEgSGfIr-89">
          <mxGeometry relative="1" as="geometry">
            <mxPoint x="460" y="720" as="targetPoint" />
          </mxGeometry>
        </mxCell>
        <mxCell id="xvSNa2k9RJhKBEgSGfIr-89" value="pilih==2" style="rhombus;whiteSpace=wrap;html=1;fillColor=#e1d5e7;strokeColor=#9673a6;" vertex="1" parent="1">
          <mxGeometry x="420" y="640" width="80" height="60" as="geometry" />
        </mxCell>
        <mxCell id="xvSNa2k9RJhKBEgSGfIr-91" value="B" style="ellipse;whiteSpace=wrap;html=1;aspect=fixed;fillColor=#6d8764;fontColor=#ffffff;strokeColor=#3A5431;" vertex="1" parent="1">
          <mxGeometry x="528" y="654" width="32" height="32" as="geometry" />
        </mxCell>
        <mxCell id="xvSNa2k9RJhKBEgSGfIr-93" value="B" style="ellipse;whiteSpace=wrap;html=1;aspect=fixed;fillColor=#6d8764;fontColor=#ffffff;strokeColor=#3A5431;" vertex="1" parent="1">
          <mxGeometry x="30" y="1355" width="30" height="30" as="geometry" />
        </mxCell>
        <mxCell id="xvSNa2k9RJhKBEgSGfIr-103" style="edgeStyle=orthogonalEdgeStyle;rounded=0;orthogonalLoop=1;jettySize=auto;html=1;" edge="1" parent="1" source="xvSNa2k9RJhKBEgSGfIr-95" target="xvSNa2k9RJhKBEgSGfIr-104">
          <mxGeometry relative="1" as="geometry">
            <mxPoint x="530" y="745" as="targetPoint" />
          </mxGeometry>
        </mxCell>
        <mxCell id="xvSNa2k9RJhKBEgSGfIr-126" style="edgeStyle=orthogonalEdgeStyle;rounded=0;orthogonalLoop=1;jettySize=auto;html=1;exitX=0.5;exitY=1;exitDx=0;exitDy=0;entryX=0.5;entryY=0;entryDx=0;entryDy=0;" edge="1" parent="1" source="xvSNa2k9RJhKBEgSGfIr-95" target="xvSNa2k9RJhKBEgSGfIr-44">
          <mxGeometry relative="1" as="geometry" />
        </mxCell>
        <mxCell id="xvSNa2k9RJhKBEgSGfIr-95" value="pilih==3" style="rhombus;whiteSpace=wrap;html=1;fillColor=#e1d5e7;strokeColor=#9673a6;" vertex="1" parent="1">
          <mxGeometry x="420" y="720" width="80" height="50" as="geometry" />
        </mxCell>
        <mxCell id="xvSNa2k9RJhKBEgSGfIr-104" value="C" style="ellipse;whiteSpace=wrap;html=1;aspect=fixed;fillColor=#e3c800;fontColor=#000000;strokeColor=#B09500;" vertex="1" parent="1">
          <mxGeometry x="540" y="728.75" width="32.5" height="32.5" as="geometry" />
        </mxCell>
        <mxCell id="xvSNa2k9RJhKBEgSGfIr-106" value="C" style="ellipse;whiteSpace=wrap;html=1;aspect=fixed;fillColor=#e3c800;fontColor=#000000;strokeColor=#B09500;" vertex="1" parent="1">
          <mxGeometry x="30" y="815" width="30" height="30" as="geometry" />
        </mxCell>
        <mxCell id="xvSNa2k9RJhKBEgSGfIr-107" value="true" style="text;html=1;align=center;verticalAlign=middle;resizable=0;points=[];autosize=1;strokeColor=none;fillColor=none;" vertex="1" parent="1">
          <mxGeometry x="1120" y="538" width="40" height="30" as="geometry" />
        </mxCell>
        <mxCell id="xvSNa2k9RJhKBEgSGfIr-108" value="false" style="text;html=1;align=center;verticalAlign=middle;resizable=0;points=[];autosize=1;strokeColor=none;fillColor=none;" vertex="1" parent="1">
          <mxGeometry x="1055" y="618" width="50" height="30" as="geometry" />
        </mxCell>
        <mxCell id="xvSNa2k9RJhKBEgSGfIr-117" value="A" style="ellipse;whiteSpace=wrap;html=1;aspect=fixed;fillColor=#6a00ff;fontColor=#ffffff;strokeColor=#3700CC;" vertex="1" parent="1">
          <mxGeometry x="1275" y="673.13" width="51.25" height="51.25" as="geometry" />
        </mxCell>
        <mxCell id="xvSNa2k9RJhKBEgSGfIr-129" value="true" style="text;html=1;align=center;verticalAlign=middle;resizable=0;points=[];autosize=1;strokeColor=none;fillColor=none;" vertex="1" parent="1">
          <mxGeometry x="495" y="724.38" width="40" height="30" as="geometry" />
        </mxCell>
        <mxCell id="xvSNa2k9RJhKBEgSGfIr-131" value="false" style="text;html=1;align=center;verticalAlign=middle;resizable=0;points=[];autosize=1;strokeColor=none;fillColor=none;" vertex="1" parent="1">
          <mxGeometry x="450" y="770" width="50" height="30" as="geometry" />
        </mxCell>
        <mxCell id="xvSNa2k9RJhKBEgSGfIr-132" value="true" style="text;html=1;align=center;verticalAlign=middle;resizable=0;points=[];autosize=1;strokeColor=none;fillColor=none;" vertex="1" parent="1">
          <mxGeometry x="770" y="1338" width="40" height="30" as="geometry" />
        </mxCell>
        <mxCell id="xvSNa2k9RJhKBEgSGfIr-133" value="false" style="text;html=1;align=center;verticalAlign=middle;resizable=0;points=[];autosize=1;strokeColor=none;fillColor=none;" vertex="1" parent="1">
          <mxGeometry x="725" y="1428" width="50" height="30" as="geometry" />
        </mxCell>
        <mxCell id="xvSNa2k9RJhKBEgSGfIr-134" value="true" style="text;html=1;align=center;verticalAlign=middle;resizable=0;points=[];autosize=1;strokeColor=none;fillColor=none;" vertex="1" parent="1">
          <mxGeometry x="770" y="1488" width="40" height="30" as="geometry" />
        </mxCell>
        <mxCell id="xvSNa2k9RJhKBEgSGfIr-135" value="false" style="text;html=1;align=center;verticalAlign=middle;resizable=0;points=[];autosize=1;strokeColor=none;fillColor=none;" vertex="1" parent="1">
          <mxGeometry x="715" y="1598" width="50" height="30" as="geometry" />
        </mxCell>
        <mxCell id="xvSNa2k9RJhKBEgSGfIr-136" value="true" style="text;html=1;align=center;verticalAlign=middle;resizable=0;points=[];autosize=1;strokeColor=none;fillColor=none;" vertex="1" parent="1">
          <mxGeometry x="770" y="1648" width="40" height="30" as="geometry" />
        </mxCell>
        <mxCell id="xvSNa2k9RJhKBEgSGfIr-138" value="false" style="text;html=1;align=center;verticalAlign=middle;resizable=0;points=[];autosize=1;strokeColor=none;fillColor=none;" vertex="1" parent="1">
          <mxGeometry x="725" y="1728" width="50" height="30" as="geometry" />
        </mxCell>
        <mxCell id="xvSNa2k9RJhKBEgSGfIr-139" value="A" style="ellipse;whiteSpace=wrap;html=1;aspect=fixed;fillColor=#6a00ff;fontColor=#ffffff;strokeColor=#3700CC;" vertex="1" parent="1">
          <mxGeometry x="700" y="1777.5" width="45" height="45" as="geometry" />
        </mxCell>
        <mxCell id="xvSNa2k9RJhKBEgSGfIr-140" value="true" style="text;html=1;align=center;verticalAlign=middle;resizable=0;points=[];autosize=1;strokeColor=none;fillColor=none;" vertex="1" parent="1">
          <mxGeometry x="182.5" y="540" width="40" height="30" as="geometry" />
        </mxCell>
        <mxCell id="xvSNa2k9RJhKBEgSGfIr-141" value="false" style="text;html=1;align=center;verticalAlign=middle;resizable=0;points=[];autosize=1;strokeColor=none;fillColor=none;" vertex="1" parent="1">
          <mxGeometry x="132.5" y="683.75" width="50" height="30" as="geometry" />
        </mxCell>
        <mxCell id="xvSNa2k9RJhKBEgSGfIr-142" value="true" style="text;html=1;align=center;verticalAlign=middle;resizable=0;points=[];autosize=1;strokeColor=none;fillColor=none;" vertex="1" parent="1">
          <mxGeometry x="180" y="798" width="40" height="30" as="geometry" />
        </mxCell>
        <mxCell id="xvSNa2k9RJhKBEgSGfIr-144" value="true" style="text;html=1;align=center;verticalAlign=middle;resizable=0;points=[];autosize=1;strokeColor=none;fillColor=none;" vertex="1" parent="1">
          <mxGeometry x="180" y="923" width="40" height="30" as="geometry" />
        </mxCell>
        <mxCell id="xvSNa2k9RJhKBEgSGfIr-145" value="false" style="text;html=1;align=center;verticalAlign=middle;resizable=0;points=[];autosize=1;strokeColor=none;fillColor=none;" vertex="1" parent="1">
          <mxGeometry x="132.5" y="1150" width="50" height="30" as="geometry" />
        </mxCell>
        <mxCell id="xvSNa2k9RJhKBEgSGfIr-146" value="true" style="text;html=1;align=center;verticalAlign=middle;resizable=0;points=[];autosize=1;strokeColor=none;fillColor=none;" vertex="1" parent="1">
          <mxGeometry x="180" y="1328" width="40" height="30" as="geometry" />
        </mxCell>
        <mxCell id="xvSNa2k9RJhKBEgSGfIr-147" value="false" style="text;html=1;align=center;verticalAlign=middle;resizable=0;points=[];autosize=1;strokeColor=none;fillColor=none;" vertex="1" parent="1">
          <mxGeometry x="145" y="1538" width="50" height="30" as="geometry" />
        </mxCell>
        <mxCell id="xvSNa2k9RJhKBEgSGfIr-148" value="true" style="text;html=1;align=center;verticalAlign=middle;resizable=0;points=[];autosize=1;strokeColor=none;fillColor=none;" vertex="1" parent="1">
          <mxGeometry x="715" y="923" width="40" height="30" as="geometry" />
        </mxCell>
        <mxCell id="xvSNa2k9RJhKBEgSGfIr-158" value="false" style="text;html=1;align=center;verticalAlign=middle;resizable=0;points=[];autosize=1;strokeColor=none;fillColor=none;" vertex="1" parent="1">
          <mxGeometry x="665" y="998" width="50" height="30" as="geometry" />
        </mxCell>
        <mxCell id="xvSNa2k9RJhKBEgSGfIr-159" value="true" style="text;html=1;align=center;verticalAlign=middle;resizable=0;points=[];autosize=1;strokeColor=none;fillColor=none;" vertex="1" parent="1">
          <mxGeometry x="720" y="1048" width="40" height="30" as="geometry" />
        </mxCell>
        <mxCell id="xvSNa2k9RJhKBEgSGfIr-160" value="false" style="text;html=1;align=center;verticalAlign=middle;resizable=0;points=[];autosize=1;strokeColor=none;fillColor=none;" vertex="1" parent="1">
          <mxGeometry x="675" y="1128" width="50" height="30" as="geometry" />
        </mxCell>
        <mxCell id="xvSNa2k9RJhKBEgSGfIr-161" value="true" style="text;html=1;align=center;verticalAlign=middle;resizable=0;points=[];autosize=1;strokeColor=none;fillColor=none;" vertex="1" parent="1">
          <mxGeometry x="720" y="1198" width="40" height="30" as="geometry" />
        </mxCell>
        <mxCell id="xvSNa2k9RJhKBEgSGfIr-165" value="true" style="text;html=1;align=center;verticalAlign=middle;resizable=0;points=[];autosize=1;strokeColor=none;fillColor=none;" vertex="1" parent="1">
          <mxGeometry x="488" y="643.13" width="40" height="30" as="geometry" />
        </mxCell>
        <mxCell id="xvSNa2k9RJhKBEgSGfIr-167" value="false" style="text;html=1;align=center;verticalAlign=middle;resizable=0;points=[];autosize=1;strokeColor=none;fillColor=none;" vertex="1" parent="1">
          <mxGeometry x="455" y="694.38" width="50" height="30" as="geometry" />
        </mxCell>
        <mxCell id="xvSNa2k9RJhKBEgSGfIr-168" value="false" style="text;html=1;align=center;verticalAlign=middle;resizable=0;points=[];autosize=1;strokeColor=none;fillColor=none;" vertex="1" parent="1">
          <mxGeometry x="130" y="870" width="50" height="30" as="geometry" />
        </mxCell>
      </root>
    </mxGraphModel>
  </diagram>
</mxfile>
